HIERARCHY
ROOT Hips
{
	OFFSET 0.00000 0.00000 0.00000
	CHANNELS 6 Xposition Yposition Zposition Zrotation Yrotation Xrotation 
	JOINT LHipJoint
	{
		OFFSET 0 0 0
		CHANNELS 3 Zrotation Yrotation Xrotation
		JOINT LeftHip
		{
			OFFSET 1.82298 -1.58346 0.87084
			CHANNELS 3 Zrotation Yrotation Xrotation
			JOINT LeftKnee
			{
				OFFSET 2.43790 -6.69809 0.00000
				CHANNELS 3 Zrotation Yrotation Xrotation
				JOINT LeftAnkle
				{
					OFFSET 2.59288 -7.12389 0.00000
					CHANNELS 3 Zrotation Yrotation Xrotation
					JOINT LeftToe
					{
						OFFSET 0.14552 -0.39981 2.13160
						CHANNELS 3 Zrotation Yrotation Xrotation
						End Site
						{
							OFFSET 0.00000 -0.00000 1.09427
						}
					}
				}
			}
		}
	}
	JOINT RHipJoint
	{
		OFFSET 0 0 0
		CHANNELS 3 Zrotation Yrotation Xrotation
		JOINT RightHip
		{
			OFFSET -1.77229 -1.58346 0.87084
			CHANNELS 3 Zrotation Yrotation Xrotation
			JOINT RightKnee
			{
				OFFSET -2.50703 -6.88801 0.00000
				CHANNELS 3 Zrotation Yrotation Xrotation
				JOINT RightAnkle
				{
					OFFSET -2.61620 -7.18796 0.00000
					CHANNELS 3 Zrotation Yrotation Xrotation
					JOINT RightToe
					{
						OFFSET -0.15190 -0.41735 2.15974
						CHANNELS 3 Zrotation Yrotation Xrotation
						End Site
						{
							OFFSET -0.00000 -0.00000 1.10919
						}
					}
				}
			}
		}
	}
	JOINT lowerback
	{
		OFFSET 0 0 0
		CHANNELS 3 Zrotation Yrotation Xrotation
		JOINT Chest
		{
			OFFSET -0.03602 2.12423 -0.30249
			CHANNELS 3 Zrotation Yrotation Xrotation
			JOINT Chest2
			{
				OFFSET 0.02717 2.10043 0.12912
				CHANNELS 3 Zrotation Yrotation Xrotation
				JOINT lowerneck
				{
					OFFSET 0 0 0
					CHANNELS 3 Zrotation Yrotation Xrotation
					JOINT Neck
					{
						OFFSET -0.06371 1.88656 0.11602
						CHANNELS 3 Zrotation Yrotation Xrotation
						JOINT Head
						{
							OFFSET 0.08208 1.87759 -0.11505
							CHANNELS 3 Zrotation Yrotation Xrotation
							End Site
							{
								OFFSET 0.03382 1.93090 -0.05483
							}
						}
					}
				}
				JOINT LeftCollar
				{
					OFFSET 0 0 0
					CHANNELS 3 Zrotation Yrotation Xrotation
					JOINT LeftShoulder
					{
						OFFSET 3.30903 1.40357 0.20156
CHANNELS 3 Zrotation Xrotation Yrotation
						JOINT LeftElbow
						{
OFFSET 0 -5.433010 0.000000
CHANNELS 3 Zrotation Xrotation Yrotation
							JOINT LeftWrist
							{
OFFSET 0 -3.159360 0.000000
CHANNELS 3 Zrotation Xrotation Yrotation
								JOINT lhand
								{
									OFFSET 0 0 0
CHANNELS 3 Zrotation Xrotation Yrotation
									JOINT LFingers
									{
OFFSET 0 -0.712830 0.000000
CHANNELS 3 Zrotation Xrotation Yrotation
										End Site
										{
OFFSET 0 -0.574700 0.000000
										}
									}
								}
								JOINT LThumb
								{
OFFSET 0 0.000000 0.000000
CHANNELS 3 Zrotation Xrotation Yrotation
									End Site
									{
OFFSET 0 -0.583470 0.583470
									}
								}
							}
						}
					}
				}
				JOINT RightCollar
				{
					OFFSET 0 0 0
					CHANNELS 3 Zrotation Yrotation Xrotation
					JOINT RightShoulder
					{
						OFFSET -3.12947 1.60037 -0.00464
CHANNELS 3 Zrotation Xrotation Yrotation
						JOINT RightElbow
						{
OFFSET 0 -5.341940 0.000000
CHANNELS 3 Zrotation Xrotation Yrotation
							JOINT RightWrist
							{
OFFSET 0 -3.193510 0.000000
CHANNELS 3 Zrotation Xrotation Yrotation
								JOINT rhand
								{
									OFFSET 0 0 0
CHANNELS 3 Zrotation Xrotation Yrotation
									JOINT RFingers
									{
OFFSET 0 -0.743860 0.000000
CHANNELS 3 Zrotation Xrotation Yrotation
										End Site
										{
OFFSET 0 -0.599720 0.000000
										}
									}
								}
								JOINT RThumb
								{
OFFSET 0 0.000000 0.000000
CHANNELS 3 Zrotation Xrotation Yrotation
									End Site
									{
OFFSET 0 -0.608880 0.608880
									}
								}
							}
						}
					}
				}
			}
		}
	}
}
MOTION
Frames: 12
Frame Time: 0.008333333333333333
-1.014487 14.352279 3.371629 -12.282844 -26.827287 8.293659 0.000000 0.000000 0.000000 7.878412 1.576958 -59.327818 11.429032 18.138699 64.167196 0.091398 -3.648770 -5.578761 0.268542 -3.333098 -9.207602 0.000000 0.000000 0.000000 14.541875 -8.652908 -7.773163 -8.999256 -16.806251 56.086102 -2.433869 -11.483940 -35.322471 -1.212649 6.982608 -19.665132 5.065222 4.294771 13.368992 2.196681 6.712818 -1.053402 -1.834048 3.066469 -8.311238 -2.398350 1.326412 -1.688547 4.079566 1.691988 3.687558 1.717441 0.881172 1.380456 0.000000 0.000000 0.000000 14.712622 -8.493662 -42.132063 81.259930 -59.706753 52.438464 34.247566 -11.378498 -15.579390 0.000000 0.000000 0.000000 -7.125000 0.000000 0.000000 6.456367 48.512475 -0.562774 0.000000 0.000000 0.000000 -18.231747 20.080274 47.105311 -103.667629 -59.282045 -71.807973 -16.190503 19.050209 32.541761 0.000000 0.000000 0.000000 7.125000 0.000000 0.000000 19.419524 62.546665 -8.448211
-1.015248 14.408197 3.503495 -12.701159 -26.686935 8.690068 0.000000 0.000000 0.000000 7.201306 2.909663 -59.937297 11.534704 18.186980 64.506110 0.098551 -3.271041 -5.689530 0.166141 -2.620688 -7.224689 0.000000 0.000000 0.000000 15.145350 -8.224835 -6.381999 -8.276084 -16.317648 53.549611 -2.352070 -12.167989 -35.349125 -1.195962 6.938704 -19.534168 5.430882 4.365891 12.760327 2.319232 6.839726 -1.181807 -1.878803 3.124359 -8.070859 -2.454706 1.319444 -1.467144 4.328419 1.675335 3.570565 1.802970 0.873284 1.304124 0.000000 0.000000 0.000000 14.726637 -10.373839 -41.917410 84.794659 -59.896190 55.493619 34.800761 -12.763211 -16.937671 0.000000 0.000000 0.000000 -7.125000 0.000000 0.000000 6.964817 50.200049 -0.896968 0.000000 0.000000 0.000000 -18.810583 20.420078 47.692309 -104.752330 -59.161343 -72.739947 -16.786168 18.878469 32.650790 0.000000 0.000000 0.000000 7.125000 0.000000 0.000000 18.856029 62.801976 -8.306576
-1.024543 14.455257 3.611427 -12.724965 -26.631553 9.073517 0.000000 0.000000 0.000000 5.619841 4.597304 -61.153361 11.654412 18.240737 64.889222 0.097247 -1.735764 -5.541753 0.041542 -1.314211 -3.613736 0.000000 0.000000 0.000000 15.374794 -7.560183 -4.719278 -7.547760 -15.776253 50.916692 -2.249798 -12.665653 -35.147022 -1.409053 7.507817 -21.228997 5.417959 4.446372 12.056083 2.307921 6.903998 -1.352844 -1.839110 3.165470 -7.850742 -2.492760 1.292033 -1.274024 4.507305 1.636662 3.375191 1.862150 0.852975 1.209144 0.000000 0.000000 0.000000 14.885938 -12.124849 -41.509296 87.984047 -59.984576 58.254189 35.133995 -13.364527 -17.390596 0.000000 0.000000 0.000000 -7.125000 0.000000 0.000000 7.291348 50.793316 -1.045623 0.000000 0.000000 0.000000 -19.266894 20.619432 48.206381 -105.543280 -59.067143 -73.418735 -18.535683 18.765511 31.145971 0.000000 0.000000 0.000000 7.125000 0.000000 0.000000 15.688130 61.814782 -6.506831
-1.046834 14.479029 3.712625 -12.609035 -26.433859 9.433994 0.000000 0.000000 0.000000 3.910608 6.060421 -62.497537 11.777565 18.295052 65.282081 0.087306 0.233106 -5.677127 0.006613 -0.478474 -1.314860 0.000000 0.000000 0.000000 15.517927 -6.805838 -2.714911 -6.820695 -15.177979 48.190939 -2.200123 -13.043136 -35.152136 -1.847142 8.535026 -24.354634 5.335237 4.482571 11.307195 2.228945 6.896118 -1.596802 -1.818525 3.170341 -7.686376 -2.431242 1.195608 -1.169483 4.538290 1.505051 3.328410 1.857825 0.787102 1.181388 0.000000 0.000000 0.000000 15.142575 -13.559081 -41.119270 91.048562 -59.994809 60.908058 35.457306 -13.135229 -17.545961 0.000000 0.000000 0.000000 -7.125000 0.000000 0.000000 7.622963 51.038539 -1.139796 0.000000 0.000000 0.000000 -19.568126 20.588951 48.535863 -105.706019 -59.047105 -73.558293 -18.165423 18.939271 32.985501 0.000000 0.000000 0.000000 7.125000 0.000000 0.000000 17.604328 63.478000 -8.015850
-1.064712 14.480129 3.795085 -12.956039 -26.069182 9.960786 0.000000 0.000000 0.000000 3.175076 7.034292 -63.635726 11.919224 18.356226 65.732452 0.088834 1.120935 -6.158340 0.003437 0.368437 1.012258 0.000000 0.000000 0.000000 16.161602 -5.987904 -0.649444 -6.096587 -14.519624 45.364999 -1.995615 -14.310574 -35.000075 -2.505609 9.845013 -28.478936 5.763400 4.464327 10.656210 2.255739 6.900391 -1.870134 -1.977020 3.157442 -7.563932 -2.484942 1.128868 -1.086691 4.653483 1.407637 3.466839 1.904379 0.739303 1.214056 0.000000 0.000000 0.000000 15.416563 -14.847636 -40.741625 93.882442 -59.941640 63.361620 35.677458 -12.462544 -17.860523 0.000000 0.000000 0.000000 -7.125000 0.000000 0.000000 7.843858 51.451240 -1.253164 0.000000 0.000000 0.000000 -19.825482 20.678922 48.707917 -105.935884 -59.018367 -73.755431 -18.606319 19.095449 33.532452 0.000000 0.000000 0.000000 7.125000 0.000000 0.000000 17.593036 64.113535 -8.271463
-1.072593 14.457947 3.867241 -13.689842 -25.508584 10.674978 0.000000 0.000000 0.000000 3.787697 7.153660 -64.405670 12.125327 18.443033 66.385424 0.123587 -0.010188 -6.643764 0.003034 0.352529 0.968723 0.000000 0.000000 0.000000 17.151630 -5.402120 1.030995 -5.438586 -13.859891 42.681972 -1.876685 -15.252124 -35.110389 -2.932039 10.583396 -30.888204 6.535751 4.318288 10.057035 2.414823 6.787865 -2.177588 -2.173032 3.070996 -7.495532 -2.253291 1.097373 -0.951398 4.489059 1.360369 3.569888 1.808943 0.715401 1.226020 0.000000 0.000000 0.000000 15.663763 -16.035415 -40.211264 96.401424 -59.843267 65.540799 35.975554 -12.091834 -18.317250 0.000000 0.000000 0.000000 -7.125000 0.000000 0.000000 8.145057 52.047770 -1.421133 0.000000 0.000000 0.000000 -20.227005 20.751876 48.977674 -106.238659 -58.979745 -74.014885 -18.853420 19.372046 33.861306 0.000000 0.000000 0.000000 7.125000 0.000000 0.000000 17.613269 64.491494 -8.436181
-1.072469 14.402182 3.920608 -14.635233 -24.937772 11.355959 0.000000 0.000000 0.000000 4.882161 7.018724 -65.271455 12.415962 18.560875 67.301286 0.143332 -1.106510 -6.846661 0.006631 0.525773 1.444718 0.000000 0.000000 0.000000 18.275649 -5.323154 2.165758 -4.957830 -13.335583 40.639105 -1.843515 -15.990847 -35.548511 -3.090428 10.839963 -31.742085 7.460289 4.152214 9.704823 2.659174 6.680091 -2.369924 -2.380631 2.980534 -7.441860 -2.238419 1.135029 -1.266504 4.574388 1.403102 3.822372 1.841512 0.743547 1.359410 0.000000 0.000000 0.000000 15.759465 -17.299022 -39.548646 98.658772 -59.714255 67.491449 35.865180 -12.410000 -18.561245 0.000000 0.000000 0.000000 -7.125000 0.000000 0.000000 8.018747 52.311133 -1.451034 0.000000 0.000000 0.000000 -20.662519 20.471260 49.160612 -106.297346 -58.972252 -74.065236 -19.210114 19.900897 33.951305 0.000000 0.000000 0.000000 7.125000 0.000000 0.000000 17.285754 64.674461 -8.348140
-1.069446 14.349038 3.958799 -15.369417 -24.608803 11.920258 0.000000 0.000000 0.000000 5.672487 6.944271 -66.131248 12.704793 18.672917 68.206022 0.153249 -1.278789 -7.055545 0.009837 0.638782 1.755284 0.000000 0.000000 0.000000 19.131483 -5.525522 2.714002 -4.660839 -12.991361 39.336180 -1.907229 -16.465608 -36.292682 -3.038753 10.757448 -31.466263 8.102746 4.070394 9.474438 2.850769 6.652774 -2.545937 -2.511321 2.937258 -7.459613 -2.125692 1.134989 -1.302711 4.548421 1.400066 3.863769 1.814005 0.743916 1.379376 0.000000 0.000000 0.000000 15.703786 -18.381219 -38.946035 100.622042 -59.569258 69.185637 35.842666 -12.660805 -19.014301 0.000000 0.000000 0.000000 -7.125000 0.000000 0.000000 7.976018 52.836365 -1.545855 0.000000 0.000000 0.000000 -21.047430 20.152055 49.191373 -106.124613 -58.994448 -73.917212 -19.421811 20.414870 34.036039 0.000000 0.000000 0.000000 7.125000 0.000000 0.000000 17.119946 64.813205 -8.320943
-1.064303 14.304601 3.988166 -15.893561 -24.644016 12.418821 0.000000 0.000000 0.000000 6.355415 6.861186 -66.596653 12.914821 18.751166 68.860702 0.177223 -1.143556 -7.629836 0.011017 0.676751 1.859735 0.000000 0.000000 0.000000 19.710728 -5.690074 2.837423 -4.489194 -12.784316 38.566386 -2.012559 -17.011734 -37.302432 -2.837664 10.427304 -30.372185 8.464746 4.110241 9.271783 2.972956 6.745489 -2.670122 -2.578305 2.966323 -7.446660 -2.056778 1.148268 -1.386580 4.544129 1.415224 3.915242 1.802371 0.753760 1.410180 0.000000 0.000000 0.000000 15.500926 -19.233493 -38.394191 101.992094 -59.449501 70.366222 35.688950 -12.642979 -19.097219 0.000000 0.000000 0.000000 -7.125000 0.000000 0.000000 7.805825 52.900524 -1.524709 0.000000 0.000000 0.000000 -21.329087 19.672838 49.074621 -105.457211 -59.077590 -73.344859 -20.241847 20.931007 32.829665 0.000000 0.000000 0.000000 7.125000 0.000000 0.000000 15.101615 63.881714 -6.994718
-1.057904 14.278291 4.002896 -16.170619 -24.941457 12.765287 0.000000 0.000000 0.000000 6.886497 6.828780 -66.728081 13.042300 18.797372 69.256684 0.199634 -1.072172 -8.129454 0.011609 0.696285 1.913501 0.000000 0.000000 0.000000 19.993185 -5.287960 2.896801 -4.456494 -12.744281 38.418576 -2.104083 -17.142040 -37.875099 -2.695138 10.184409 -29.575972 8.504813 4.232053 9.367460 3.032891 6.939778 -2.796918 -2.576750 3.048712 -7.624532 -1.958379 1.149436 -1.538396 4.448747 1.414223 4.062490 1.758030 0.755840 1.484215 0.000000 0.000000 0.000000 15.193013 -19.876171 -37.996348 102.768845 -59.374873 71.034915 35.532039 -12.385199 -19.142796 0.000000 0.000000 0.000000 -7.125000 0.000000 0.000000 7.633789 52.920490 -1.494514 0.000000 0.000000 0.000000 -21.487446 19.148939 48.763186 -104.450253 -59.196048 -72.480453 -19.987911 21.159316 33.116367 0.000000 0.000000 0.000000 7.125000 0.000000 0.000000 15.636535 64.090302 -7.321051
-1.054004 14.248548 4.011775 -16.198806 -25.298717 12.900368 0.000000 0.000000 0.000000 7.072725 6.902892 -66.829923 13.169083 18.842341 69.649821 0.210967 -1.092409 -8.358939 0.014987 0.790576 2.172802 0.000000 0.000000 0.000000 19.909858 -4.631608 2.837980 -4.532536 -12.837180 38.762085 -2.048084 -17.476395 -37.876928 -2.810637 10.382061 -30.223064 8.352360 4.329806 9.415352 3.031700 7.053616 -2.756487 -2.513311 3.112930 -7.613535 -1.814718 1.181346 -1.842916 4.278534 1.455896 4.249797 1.684867 0.780413 1.597166 0.000000 0.000000 0.000000 14.870429 -20.436596 -37.542347 103.116103 -59.339868 71.333673 35.259195 -12.239865 -19.360298 0.000000 0.000000 0.000000 -7.125000 0.000000 0.000000 7.325896 53.115534 -1.468437 0.000000 0.000000 0.000000 -21.544798 18.659832 48.378652 -103.802933 -59.267709 -71.924275 -20.148082 21.689952 33.422267 0.000000 0.000000 0.000000 7.125000 0.000000 0.000000 15.756125 64.420175 -7.525780
-1.053649 14.218079 4.020852 -16.198790 -25.523068 12.957493 0.000000 0.000000 0.000000 7.159358 6.986149 -67.032419 13.317877 18.893881 70.109808 0.212598 -1.208223 -8.367215 0.020786 0.929516 2.554850 0.000000 0.000000 0.000000 19.639821 -4.534474 2.582947 -4.627013 -12.950985 39.185211 -2.054692 -17.353091 -37.805216 -2.926530 10.575045 -30.859785 8.210359 4.408323 9.493436 3.042930 7.145026 -2.690860 -2.441366 3.166756 -7.595769 -1.739341 1.152304 -1.896672 4.162551 1.421800 4.184845 1.633402 0.762522 1.587280 0.000000 0.000000 0.000000 14.501475 -20.854258 -37.295441 102.954132 -59.356324 71.194336 35.457694 -12.241271 -19.501631 0.000000 0.000000 0.000000 -7.125000 0.000000 0.000000 7.533144 53.322234 -1.548702 0.000000 0.000000 0.000000 -21.514190 18.356543 47.849270 -103.474076 -59.302776 -71.641545 -20.501977 22.279764 33.469765 0.000000 0.000000 0.000000 7.125000 0.000000 0.000000 15.345304 64.570452 -7.351858
